<svg width="34" height="31" viewBox="0 0 34 31" fill="none" xmlns="http://www.w3.org/2000/svg">
<path d="M26.8626 30.5147H6.60937C5.60221 30.5147 4.63631 30.1209 3.92415 29.4199C3.21198 28.7189 2.81189 27.7681 2.81189 26.7767V14.317C2.81189 13.9866 2.94525 13.6696 3.18264 13.436C3.42003 13.2023 3.742 13.071 4.07772 13.071C4.41343 13.071 4.7354 13.2023 4.97279 13.436C5.21018 13.6696 5.34354 13.9866 5.34354 14.317V26.7767C5.34354 27.1072 5.47691 27.4241 5.71429 27.6578C5.95168 27.8914 6.27365 28.0227 6.60937 28.0227H26.8626C27.1983 28.0227 27.5203 27.8914 27.7577 27.6578C27.9951 27.4241 28.1284 27.1072 28.1284 26.7767V14.317C28.1284 13.9866 28.2618 13.6696 28.4992 13.436C28.7366 13.2023 29.0585 13.071 29.3942 13.071C29.73 13.071 30.0519 13.2023 30.2893 13.436C30.5267 13.6696 30.6601 13.9866 30.6601 14.317V26.7767C30.6601 27.7681 30.26 28.7189 29.5478 29.4199C28.8356 30.1209 27.8697 30.5147 26.8626 30.5147Z" fill="black"/>
<path d="M15.4702 30.5147H9.14107C8.80535 30.5147 8.48338 30.3834 8.246 30.1497C8.00861 29.9161 7.87524 29.5991 7.87524 29.2687V21.7929C7.87524 20.8015 8.27533 19.8507 8.9875 19.1497C9.69966 18.4487 10.6656 18.0549 11.6727 18.0549H12.9385C13.9457 18.0549 14.9116 18.4487 15.6238 19.1497C16.3359 19.8507 16.736 20.8015 16.736 21.7929V29.2687C16.736 29.5991 16.6027 29.9161 16.3653 30.1497C16.1279 30.3834 15.8059 30.5147 15.4702 30.5147ZM10.4069 28.0227H14.2044V21.7929C14.2044 21.4624 14.071 21.1455 13.8336 20.9118C13.5962 20.6781 13.2743 20.5469 12.9385 20.5469H11.6727C11.337 20.5469 11.015 20.6781 10.7776 20.9118C10.5403 21.1455 10.4069 21.4624 10.4069 21.7929V28.0227Z" fill="black"/>
<path d="M28.1284 15.563C26.7856 15.563 25.4977 15.0379 24.5482 14.1033C23.5986 13.1686 23.0651 11.9009 23.0651 10.5791C23.0651 10.2487 23.1985 9.93174 23.4359 9.69808C23.6733 9.46441 23.9953 9.33314 24.331 9.33314C24.6667 9.33314 24.9887 9.46441 25.226 9.69808C25.4634 9.93174 25.5968 10.2487 25.5968 10.5791C25.5968 11.24 25.8635 11.8739 26.3383 12.3412C26.8131 12.8085 27.457 13.0711 28.1284 13.0711C28.7999 13.0711 29.4438 12.8085 29.9186 12.3412C30.3934 11.8739 30.6601 11.24 30.6601 10.5791V9.63217L27.3436 3.10327H6.12839L2.81193 9.63217V10.5791C2.81193 11.24 3.07865 11.8739 3.55343 12.3412C4.02821 12.8085 4.67214 13.0711 5.34358 13.0711C6.01501 13.0711 6.65895 12.8085 7.13373 12.3412C7.6085 11.8739 7.87523 11.24 7.87523 10.5791C7.87523 10.2487 8.00859 9.93174 8.24598 9.69808C8.48337 9.46441 8.80534 9.33314 9.14106 9.33314C9.47677 9.33314 9.79874 9.46441 10.0361 9.69808C10.2735 9.93174 10.4069 10.2487 10.4069 10.5791C10.4069 11.9009 9.87343 13.1686 8.92387 14.1033C7.97432 15.0379 6.68645 15.563 5.34358 15.563C4.00071 15.563 2.71283 15.0379 1.76328 14.1033C0.813727 13.1686 0.280273 11.9009 0.280273 10.5791V9.33314C0.281462 9.13809 0.329155 8.94604 0.419514 8.77245L4.21699 1.29661C4.32218 1.09113 4.48312 0.918339 4.68197 0.797381C4.88083 0.676422 5.10982 0.612026 5.34358 0.611328H28.1284C28.3622 0.612026 28.5912 0.676422 28.7901 0.797381C28.9889 0.918339 29.1498 1.09113 29.255 1.29661L33.0525 8.77245C33.1429 8.94604 33.1906 9.13809 33.1918 9.33314V10.5791C33.1918 11.9009 32.6583 13.1686 31.7087 14.1033C30.7592 15.0379 29.4713 15.563 28.1284 15.563Z" fill="black"/>
<path d="M12.9385 15.563C11.5957 15.563 10.3078 15.0379 9.35825 14.1032C8.4087 13.1686 7.87524 11.9009 7.87524 10.5791C7.87524 10.2487 8.00861 9.93173 8.246 9.69807C8.48338 9.4644 8.80535 9.33313 9.14107 9.33313C9.47679 9.33313 9.79876 9.4644 10.0361 9.69807C10.2735 9.93173 10.4069 10.2487 10.4069 10.5791C10.4069 11.24 10.6736 11.8738 11.1484 12.3412C11.6232 12.8085 12.2671 13.071 12.9385 13.071C13.61 13.071 14.2539 12.8085 14.7287 12.3412C15.2035 11.8738 15.4702 11.24 15.4702 10.5791C15.4702 10.2487 15.6036 9.93173 15.841 9.69807C16.0783 9.4644 16.4003 9.33313 16.736 9.33313C17.0717 9.33313 17.3937 9.4644 17.6311 9.69807C17.8685 9.93173 18.0019 10.2487 18.0019 10.5791C18.0019 11.9009 17.4684 13.1686 16.5188 14.1032C15.5693 15.0379 14.2814 15.563 12.9385 15.563Z" fill="black"/>
<path d="M20.5335 15.563C19.1906 15.563 17.9028 15.0379 16.9532 14.1032C16.0037 13.1686 15.4702 11.9009 15.4702 10.5791C15.4702 10.2487 15.6036 9.93173 15.841 9.69807C16.0784 9.4644 16.4003 9.33313 16.736 9.33313C17.0718 9.33313 17.3937 9.4644 17.6311 9.69807C17.8685 9.93173 18.0019 10.2487 18.0019 10.5791C18.0019 11.24 18.2686 11.8738 18.7434 12.3412C19.2181 12.8085 19.8621 13.071 20.5335 13.071C21.205 13.071 21.8489 12.8085 22.3237 12.3412C22.7984 11.8738 23.0652 11.24 23.0652 10.5791C23.0652 10.2487 23.1985 9.93173 23.4359 9.69807C23.6733 9.4644 23.9953 9.33313 24.331 9.33313C24.6667 9.33313 24.9887 9.4644 25.2261 9.69807C25.4635 9.93173 25.5968 10.2487 25.5968 10.5791C25.5968 11.9009 25.0634 13.1686 24.1138 14.1032C23.1643 15.0379 21.8764 15.563 20.5335 15.563Z" fill="black"/>
<path d="M24.331 21.7928H20.5335C20.1978 21.7928 19.8758 21.6616 19.6385 21.4279C19.4011 21.1942 19.2677 20.8773 19.2677 20.5469C19.2677 20.2164 19.4011 19.8995 19.6385 19.6658C19.8758 19.4322 20.1978 19.3009 20.5335 19.3009H24.331C24.6667 19.3009 24.9887 19.4322 25.2261 19.6658C25.4635 19.8995 25.5968 20.2164 25.5968 20.5469C25.5968 20.8773 25.4635 21.1942 25.2261 21.4279C24.9887 21.6616 24.6667 21.7928 24.331 21.7928Z" fill="black"/>
</svg>
