<svg width="72" height="31" viewBox="0 0 72 31" fill="none" xmlns="http://www.w3.org/2000/svg">
<path d="M16.4898 6.85735C16.4898 6.85735 21.1296 2.95887 26.9567 2.56414C28.7074 2.44652 30.5668 2.64118 32.4391 3.35749C32.6414 3.43529 32.844 3.5181 33.0497 3.60825C33.0497 3.60825 38.4672 -0.0852102 44.1213 2.53555C44.843 2.87114 45.5703 3.30983 46.2919 3.87015C46.2919 3.87015 47.5557 3.71441 49.2727 3.71808C51.937 3.71924 55.6884 4.10351 57.4681 6.03894C57.4681 6.03894 68.4748 7.41286 69.936 16.5689C71.3971 25.725 51.2546 26.8826 51.2546 26.8826L25.1091 28.9181C25.1091 28.9181 9.42245 30.9964 3.12118 25.9764C-0.0851963 23.4215 1.38709 19.5684 3.60872 16.4021C5.72495 13.3854 8.5686 10.9387 11.8586 9.24527L12.2382 9.05182L16.4898 6.85735ZM16.4898 6.85735C16.4898 6.85735 18.122 14.4954 22.1178 18.4083C22.1178 18.4083 15.2185 19.7772 12.2328 9.04725M32.4305 3.37841C32.4305 3.37841 33.6008 11.1026 37.3545 15.2413C37.3545 15.2413 29.2971 13.445 26.9562 2.55917M44.1209 2.53049C46.381 15.2077 54.0164 15.7185 54.0164 15.7185C50.26 11.5776 49.3939 4.57977 49.3939 4.57977L49.2695 3.7107" stroke="#A38C6D" stroke-width="2" stroke-miterlimit="10" stroke-linecap="round" stroke-linejoin="round"/>
</svg>
