<svg width="79" height="69" viewBox="0 0 79 69" fill="none" xmlns="http://www.w3.org/2000/svg">
<path d="M37.6017 31.4697C28.0388 31.4697 9.94543 30.4164 9.94543 26.5719C9.94543 22.7274 28.0388 21.6847 37.6017 21.6847C47.1646 21.6847 65.2579 22.738 65.2579 26.5719C65.2579 30.4059 47.1646 31.4697 37.6017 31.4697ZM37.6017 23.2646C21.1677 23.2646 12.0596 25.3712 11.7892 26.5825C12.0596 27.7305 21.1677 29.8898 37.6017 29.8898C54.0356 29.8898 63.1192 27.7305 63.4142 26.5719C63.1192 25.3923 54.0111 23.2436 37.6017 23.2436V23.2646Z" fill="#A38C6D"/>
<path d="M62.1973 28.9523C62.0747 28.9526 61.9533 28.9311 61.8409 28.8891C57.7355 27.4145 48.2709 26.456 37.614 26.456C26.9571 26.456 17.468 27.4145 13.3625 28.8891C13.2512 28.9306 13.1313 28.9529 13.0099 28.9547C12.8885 28.9565 12.7678 28.9378 12.6548 28.8997C12.5418 28.8615 12.4387 28.8047 12.3513 28.7324C12.264 28.6601 12.1941 28.5738 12.1457 28.4783C12.0972 28.3829 12.0712 28.2802 12.0691 28.1762C12.067 28.0721 12.0888 27.9687 12.1333 27.8719C12.1778 27.775 12.2442 27.6867 12.3285 27.6118C12.4129 27.537 12.5137 27.4771 12.625 27.4356C16.9394 25.8767 26.7359 24.8761 37.5894 24.8761C48.443 24.8761 58.2148 25.9294 62.5292 27.4356C62.7243 27.5068 62.8848 27.6335 62.9836 27.7943C63.0824 27.9551 63.1135 28.1402 63.0717 28.3183C63.0298 28.4965 62.9175 28.6568 62.7538 28.7723C62.59 28.8878 62.3848 28.9514 62.1727 28.9523H62.1973Z" fill="#A38C6D"/>
<path d="M37.9582 62.1307C30.5094 62.1307 24.4373 60.0241 19.7542 55.811C8.69172 45.71 9.92088 27.2986 9.92088 26.5192C9.9174 26.4092 9.94075 26.2999 9.98944 26.1981C10.0381 26.0963 10.1111 26.0043 10.2037 25.9281C10.2962 25.8519 10.4064 25.7931 10.527 25.7555C10.6476 25.7178 10.7761 25.7022 10.9041 25.7095C11.0322 25.7169 11.1571 25.7471 11.2708 25.7982C11.3845 25.8493 11.4844 25.9202 11.5643 26.0064C11.6441 26.0925 11.7021 26.192 11.7345 26.2984C11.7669 26.4049 11.7729 26.5159 11.7523 26.6245C11.7523 26.8141 10.5232 45.1307 21.0694 54.7367C25.3715 58.6443 31.0503 60.6034 38.118 60.5718C45.1857 60.5402 50.9505 58.5285 55.1296 54.6419C64.5696 45.8785 63.7338 29.8897 63.4265 26.772C63.4265 26.6245 63.4265 26.5297 63.4265 26.5192C63.4511 26.3116 63.5659 26.1195 63.748 25.981C63.9301 25.8425 64.1664 25.7676 64.4098 25.7714C64.6384 25.7867 64.8523 25.8736 65.011 26.0154C65.1696 26.1571 65.2619 26.344 65.2703 26.5403V26.6561C65.6636 31.1958 66.1921 46.6685 56.494 55.7162C51.9584 59.9083 45.8125 62.0886 38.1671 62.1307H37.9582Z" fill="#A38C6D"/>
<path d="M62.0744 46.2683C61.8567 46.2707 61.6451 46.2062 61.4782 46.0864C61.3113 45.9665 61.2001 45.7994 61.1648 45.6152C61.1436 45.5129 61.1462 45.4079 61.1724 45.3064C61.1987 45.2049 61.248 45.1088 61.3177 45.0237C61.3873 44.9385 61.4759 44.866 61.5784 44.8103C61.6808 44.7545 61.7951 44.7167 61.9146 44.6989C66.8313 43.9932 69.7075 40.1592 70.359 36.9046C70.6909 35.272 70.359 33.9238 69.6461 33.5657C68.9332 33.2075 65.8848 34.166 65.0982 35.0508C64.9499 35.2001 64.7428 35.2976 64.5163 35.3247C64.2897 35.3519 64.0594 35.3069 63.869 35.1983C63.7717 35.1361 63.6899 35.0579 63.6284 34.9683C63.567 34.8787 63.527 34.7794 63.511 34.6764C63.495 34.5733 63.5031 34.4685 63.5351 34.3682C63.567 34.2679 63.622 34.1741 63.6969 34.0923C64.7909 32.8494 68.6136 31.2168 70.6171 32.1859C72.1167 32.9126 72.7313 34.7769 72.2396 37.1784C71.4161 40.9492 67.9375 45.4151 62.2219 46.2156L62.0744 46.2683Z" fill="#A38C6D"/>
<path d="M60.3168 50.1234C60.0954 50.1251 59.8809 50.0576 59.7134 49.9335C59.546 49.8094 59.4371 49.6372 59.4072 49.4493C59.3862 49.3474 59.3895 49.2429 59.4167 49.1421C59.444 49.0413 59.4948 48.9463 59.5659 48.8627C59.6371 48.7791 59.7272 48.7086 59.8309 48.6556C59.9345 48.6026 60.0496 48.568 60.1693 48.554C67.5443 47.5955 71.1334 44.246 72.842 41.6023C74.9807 38.2739 75.1159 34.4716 74.1449 32.5862C73.8548 32.0023 73.4144 31.482 72.8568 31.0644C72.2992 30.6467 71.6386 30.3424 70.9245 30.1742C69.9107 29.9799 68.8593 29.9802 67.8456 30.175C66.832 30.3699 65.8812 30.7544 65.0613 31.3012C64.8661 31.4075 64.6313 31.4471 64.4036 31.4119C64.1759 31.3768 63.9719 31.2696 63.8322 31.1116C63.7052 30.945 63.6574 30.7431 63.6985 30.5473C63.7396 30.3514 63.8666 30.1765 64.0534 30.0583C65.0879 29.3769 66.2865 28.9014 67.5622 28.6664C68.8378 28.4314 70.1585 28.4427 71.4284 28.6996C72.4091 28.9263 73.3168 29.3409 74.0833 29.912C74.8498 30.483 75.4551 31.1957 75.8534 31.9964C77.0826 34.282 76.9228 38.5899 74.4645 42.4028C72.5593 45.3625 68.5891 49.1017 60.4643 50.155L60.3168 50.1234Z" fill="#A38C6D"/>
<path d="M37.7493 67.018C21.2292 67.018 2.79175 64.0267 2.79175 59.7293C2.79175 56.5695 12.1457 55.0317 20.0001 54.2628C20.2514 54.2598 20.4944 54.3404 20.6777 54.4877C20.8611 54.6351 20.9707 54.8376 20.9834 55.0527C20.9884 55.1527 20.9698 55.2525 20.929 55.3462C20.8881 55.4399 20.8257 55.5256 20.7455 55.5983C20.6653 55.671 20.5688 55.7291 20.4619 55.7693C20.355 55.8095 20.2397 55.8309 20.123 55.8322C8.83925 56.9487 4.61091 58.8551 4.61091 59.7293C4.61091 61.7306 18.2792 65.4381 37.7984 65.4381C57.3176 65.4381 70.9859 61.7306 70.9859 59.7293C70.9859 58.834 66.8805 57.0013 55.8672 55.8743C55.7469 55.8619 55.6307 55.8292 55.5252 55.7783C55.4196 55.7274 55.3268 55.6591 55.2521 55.5774C55.1773 55.4958 55.122 55.4023 55.0894 55.3023C55.0568 55.2023 55.0475 55.0979 55.0621 54.9948C55.0766 54.8918 55.1147 54.7922 55.1741 54.7017C55.2335 54.6113 55.3132 54.5318 55.4085 54.4677C55.5038 54.4036 55.6129 54.3563 55.7296 54.3284C55.8462 54.3004 55.9682 54.2925 56.0884 54.3049C63.7215 55.0843 72.8297 56.6537 72.8297 59.7293C72.719 64.0267 54.2938 67.018 37.7493 67.018Z" fill="#A38C6D"/>
<path d="M37.11 19.6624C36.9885 19.6638 36.8679 19.6444 36.7553 19.6052C36.6427 19.566 36.5404 19.5078 36.4545 19.4342C36.3686 19.3605 36.3007 19.2729 36.255 19.1764C36.2092 19.0799 36.1865 18.9766 36.1882 18.8724C36.1608 17.8602 36.4003 16.8557 36.8888 15.9338C37.2979 15.1942 37.4959 14.3819 37.4665 13.5639C37.4901 12.7565 37.2922 11.9556 36.8888 11.2256C36.4021 10.3069 36.1626 9.30618 36.1882 8.29747C36.1598 7.28175 36.3993 6.27364 36.8888 5.34828C37.2885 4.62471 37.4863 3.8314 37.4665 3.03105C37.4665 2.82154 37.5636 2.62061 37.7365 2.47246C37.9094 2.32432 38.1439 2.24109 38.3884 2.24109C38.6329 2.24109 38.8674 2.32432 39.0402 2.47246C39.2131 2.62061 39.3103 2.82154 39.3103 3.03105C39.3327 4.04741 39.0891 5.05516 38.5973 5.98025C38.1997 6.70406 38.0061 7.49778 38.0319 8.29747C38.0049 9.10403 38.1986 9.9048 38.5973 10.6358C39.0891 11.5534 39.3328 12.5543 39.3103 13.5639C39.3346 14.577 39.0909 15.5817 38.5973 16.5026C38.2005 17.2303 38.0069 18.0273 38.0319 18.8303C38.0386 18.9375 38.0197 19.0448 37.9764 19.1456C37.9331 19.2463 37.8662 19.3385 37.7799 19.4163C37.6937 19.4942 37.5897 19.5562 37.4746 19.5985C37.3594 19.6408 37.2354 19.6626 37.11 19.6624Z" fill="#A38C6D"/>
<path d="M44.0672 19.6623C43.8227 19.6623 43.5882 19.5791 43.4153 19.431C43.2424 19.2828 43.1453 19.0819 43.1453 18.8724C43.1349 18.3134 43.2692 17.7594 43.5386 17.2503C43.7228 16.9226 43.8073 16.5603 43.7844 16.197C43.8063 15.8339 43.7218 15.4718 43.5386 15.1437C43.2747 14.6479 43.1405 14.1087 43.1453 13.5638C43.1332 13.0047 43.2676 12.4504 43.5386 11.9418C43.7203 11.6133 43.8047 11.2515 43.7844 10.8885C43.7844 10.679 43.8816 10.478 44.0545 10.3299C44.2273 10.1817 44.4618 10.0985 44.7063 10.0985C44.9508 10.0985 45.1853 10.1817 45.3582 10.3299C45.5311 10.478 45.6282 10.679 45.6282 10.8885C45.6464 11.448 45.5117 12.0035 45.2349 12.5105C45.0725 12.8332 44.9888 13.1808 44.9888 13.5322C44.9888 13.8836 45.0725 14.2312 45.2349 14.5539C45.5117 15.0609 45.6464 15.6164 45.6282 16.176C45.645 16.7354 45.5104 17.2906 45.2349 17.798C45.0569 18.1275 44.9726 18.4885 44.989 18.8513C44.9941 18.9572 44.9738 19.0628 44.9296 19.1618C44.8854 19.2607 44.8181 19.3509 44.7318 19.4268C44.6455 19.5027 44.5421 19.5628 44.4278 19.6033C44.3135 19.6437 44.1908 19.6638 44.0672 19.6623Z" fill="#A38C6D"/>
<path d="M30.7798 19.6623C30.6525 19.6654 30.5257 19.6458 30.4076 19.6048C30.2896 19.5638 30.1827 19.5022 30.0937 19.4241C30.0048 19.3459 29.9358 19.2527 29.8909 19.1505C29.8461 19.0483 29.8265 18.9393 29.8334 18.8302C29.8229 18.2713 29.9573 17.7173 30.2267 17.2082C30.3887 16.8873 30.4723 16.5414 30.4723 16.1918C30.4723 15.8421 30.3887 15.4962 30.2267 15.1753C29.9575 14.6699 29.8231 14.1194 29.8334 13.5638C29.8213 13.0047 29.9557 12.4504 30.2267 11.9418C30.4025 11.6116 30.4866 11.2511 30.4725 10.8885C30.4725 10.679 30.5697 10.478 30.7425 10.3299C30.9154 10.1817 31.1499 10.0985 31.3944 10.0985C31.6389 10.0985 31.8734 10.1817 32.0463 10.3299C32.2192 10.478 32.3163 10.679 32.3163 10.8885C32.3284 11.4476 32.1939 12.0018 31.9229 12.5105C31.7413 12.839 31.6568 13.2007 31.6771 13.5638C31.6568 13.9269 31.7413 14.2886 31.9229 14.6171C32.1855 15.1275 32.3115 15.6817 32.2917 16.2392C32.3021 16.7981 32.1678 17.3521 31.8984 17.8612C31.7142 18.189 31.6296 18.5513 31.6525 18.9145C31.6407 19.1095 31.5449 19.2939 31.3838 19.432C31.2226 19.5701 31.0074 19.6522 30.7798 19.6623Z" fill="#A38C6D"/>
</svg>
