<svg width="64" height="61" viewBox="0 0 64 61" fill="none" xmlns="http://www.w3.org/2000/svg">
<path d="M31.9947 54.1787H27.0136C21.1474 54.1721 15.5233 51.859 11.3751 47.747C7.22701 43.6349 4.89359 38.0597 4.88678 32.2443V19.0944C4.88678 18.826 4.99433 18.5686 5.18577 18.3789C5.37722 18.1891 5.63687 18.0825 5.90761 18.0825H53.1007C53.3715 18.0825 53.6311 18.1891 53.8226 18.3789C54.014 18.5686 54.1216 18.826 54.1216 19.0944V32.2443C54.1148 38.0597 51.7813 43.6349 47.6332 47.747C43.4851 51.859 37.861 54.1721 31.9947 54.1787ZM6.92844 20.1064V32.2443C6.93452 37.5231 9.05261 42.584 12.818 46.3166C16.5834 50.0493 21.6886 52.1489 27.0136 52.1548H31.9947C37.3196 52.1488 42.4247 50.0491 46.19 46.3165C49.9553 42.5839 52.0733 37.523 52.0794 32.2443V20.1064H6.92844Z" fill="#A38C6D"/>
<path d="M52.0345 40.014C51.7637 40.014 51.5041 39.9073 51.3126 39.7175C51.1212 39.5278 51.0136 39.2704 51.0136 39.002C51.0136 38.7336 51.1212 38.4762 51.3126 38.2864C51.5041 38.0966 51.7637 37.99 52.0345 37.99C54.4833 37.9873 56.831 37.0217 58.5625 35.3052C60.2941 33.5887 61.2681 31.2614 61.2709 28.8338V27.719C61.2699 26.8983 60.9406 26.1115 60.3551 25.5312C59.7697 24.951 58.9759 24.6246 58.148 24.6238H53.1002C52.8295 24.6238 52.5698 24.5172 52.3784 24.3274C52.1869 24.1376 52.0794 23.8802 52.0794 23.6118C52.0794 23.3434 52.1869 23.086 52.3784 22.8962C52.5698 22.7064 52.8295 22.5998 53.1002 22.5998H58.148C59.5172 22.6013 60.8298 23.1411 61.798 24.1008C62.7662 25.0605 63.3109 26.3617 63.3125 27.719V28.8338C63.3092 31.798 62.12 34.6398 60.0056 36.7358C57.8913 38.8318 55.0246 40.0107 52.0345 40.014Z" fill="#A38C6D"/>
<path d="M29.5039 60.6873C17.6527 60.6873 0.020874 58.7455 0.020874 53.397C0.020874 49.9663 7.14425 48.1542 13.1202 47.2382C13.2527 47.2178 13.3879 47.2236 13.5181 47.2551C13.6484 47.2866 13.7711 47.3432 13.8793 47.4217C13.9874 47.5002 14.0789 47.5991 14.1486 47.7126C14.2182 47.8262 14.2646 47.9522 14.2851 48.0836C14.3056 48.2149 14.2998 48.3489 14.268 48.4781C14.2362 48.6072 14.1791 48.7288 14.0999 48.836C14.0207 48.9433 13.921 49.034 13.8065 49.103C13.6919 49.172 13.5648 49.218 13.4323 49.2383C4.10523 50.6684 2.06254 52.7249 2.06254 53.397C2.06254 55.2351 11.4873 58.6634 29.5039 58.6634C47.5204 58.6634 56.9453 55.2351 56.9453 53.397C56.9453 52.7249 54.9026 50.6684 45.5756 49.2383C45.308 49.1973 45.0678 49.0526 44.9079 48.836C44.748 48.6195 44.6814 48.3488 44.7228 48.0836C44.7641 47.8183 44.9101 47.5802 45.1286 47.4217C45.347 47.2632 45.6201 47.1971 45.8876 47.2382C51.8636 48.1542 58.987 49.9668 58.987 53.397C58.987 58.7455 41.3551 60.6873 29.5039 60.6873Z" fill="#A38C6D"/>
<path d="M26.6074 39.6581H15.7945C15.5237 39.6581 15.2641 39.5515 15.0726 39.3617C14.8812 39.172 14.7737 38.9146 14.7737 38.6462V27.9266C14.7737 27.7877 14.8025 27.6504 14.8583 27.5231C14.9141 27.3957 14.9957 27.2811 15.0981 27.1863L17.9129 24.5823C18.1018 24.4074 18.3507 24.3103 18.6092 24.3105H23.9531C24.2221 24.3104 24.4802 24.4155 24.6714 24.603L27.3256 27.2071C27.4213 27.3013 27.4973 27.4134 27.5492 27.5369C27.6011 27.6604 27.6279 27.7928 27.6281 27.9266V38.6462C27.6281 38.9145 27.5205 39.1719 27.3291 39.3617C27.1377 39.5515 26.8781 39.6581 26.6074 39.6581ZM16.8153 37.6342H25.5865V28.3486L23.5334 26.3347H19.0111L16.815 28.3666L16.8153 37.6342Z" fill="#A38C6D"/>
<path d="M21.2007 26.3344C20.93 26.3344 20.6703 26.2278 20.4789 26.038C20.2874 25.8482 20.1799 25.5908 20.1799 25.3225V19.0944C20.1799 18.826 20.2874 18.5686 20.4789 18.3789C20.6703 18.1891 20.93 18.0825 21.2007 18.0825C21.4715 18.0825 21.7311 18.1891 21.9226 18.3789C22.114 18.5686 22.2215 18.826 22.2215 19.0944V25.3225C22.2215 25.5908 22.114 25.8482 21.9226 26.038C21.7311 26.2278 21.4715 26.3344 21.2007 26.3344Z" fill="#A38C6D"/>
<path d="M23.6147 14.2056C23.4806 14.2057 23.3478 14.1796 23.224 14.1287C23.1001 14.0778 22.9876 14.0032 22.893 13.9091C20.5537 11.5909 21.6971 8.99934 22.5321 7.10786C23.3107 5.34377 23.5803 4.49989 22.893 3.81791C22.7955 3.72456 22.7177 3.6129 22.6642 3.48943C22.6107 3.36596 22.5825 3.23317 22.5813 3.0988C22.5802 2.96443 22.606 2.83118 22.6573 2.70681C22.7086 2.58244 22.7844 2.46945 22.8803 2.37443C22.9761 2.27942 23.0901 2.20427 23.2156 2.15339C23.341 2.10251 23.4755 2.0769 23.611 2.07807C23.7466 2.07924 23.8805 2.10715 24.0051 2.16019C24.1296 2.21323 24.2422 2.29032 24.3364 2.38698C26.081 4.11635 25.1504 6.2244 24.4028 7.91926C23.5225 9.91357 23.0484 11.2012 24.3364 12.478C24.4792 12.6195 24.5764 12.7998 24.6158 12.9961C24.6552 13.1924 24.635 13.3959 24.5577 13.5808C24.4805 13.7657 24.3496 13.9238 24.1818 14.035C24.0139 14.1462 23.8166 14.2055 23.6147 14.2056Z" fill="#A38C6D"/>
<path d="M35.7884 14.2056C35.6543 14.2057 35.5216 14.1796 35.3977 14.1287C35.2738 14.0778 35.1614 14.0032 35.0667 13.9091C32.7275 11.5909 33.8709 8.99934 34.7058 7.10786C35.4843 5.34377 35.754 4.49989 35.0667 3.81791C34.8807 3.62705 34.7778 3.37142 34.7802 3.10609C34.7825 2.84075 34.8899 2.58693 35.0791 2.3993C35.2684 2.21167 35.5244 2.10525 35.7921 2.10294C36.0598 2.10063 36.3176 2.20264 36.5101 2.38698C38.2548 4.11635 37.3242 6.2244 36.5765 7.91926C35.6962 9.91356 35.2222 11.2012 36.5101 12.478C36.6529 12.6195 36.7501 12.7998 36.7895 12.9961C36.8289 13.1924 36.8087 13.3959 36.7315 13.5808C36.6542 13.7657 36.5234 13.9238 36.3555 14.035C36.1877 14.1462 35.9903 14.2055 35.7884 14.2056Z" fill="#A38C6D"/>
<path d="M29.7013 12.1945C29.5672 12.1946 29.4344 12.1685 29.3106 12.1176C29.1867 12.0667 29.0742 11.9921 28.9796 11.898C26.6408 9.57951 27.7843 6.98824 28.6191 5.09675C29.3977 3.33267 29.6669 2.48868 28.9796 1.80681C28.7936 1.61595 28.6907 1.36032 28.693 1.09498C28.6954 0.829644 28.8027 0.575828 28.992 0.388199C29.1813 0.20057 29.4373 0.0941408 29.705 0.0918351C29.9726 0.0895294 30.2305 0.191531 30.423 0.375871C32.1681 2.10524 31.237 4.21319 30.4894 5.90815C29.6091 7.90246 29.135 9.1901 30.423 10.4669C30.5658 10.6084 30.663 10.7887 30.7024 10.985C30.7418 11.1813 30.7216 11.3848 30.6443 11.5697C30.5671 11.7546 30.4363 11.9127 30.2684 12.0239C30.1005 12.1351 29.9032 12.1944 29.7013 12.1945Z" fill="#A38C6D"/>
</svg>
