<svg width="49" height="81" viewBox="0 0 49 81" fill="none" xmlns="http://www.w3.org/2000/svg">
<path d="M45.715 28.0417C45.6595 18.6952 38.2062 11.1075 29.0464 11.1075H27.983L29.738 7.09229C29.829 6.88418 30.0326 6.74869 30.2571 6.74869H39.5165C40.4508 6.74869 41.21 5.97203 41.21 5.01737V2.27206C41.21 1.31828 40.4508 0.541626 39.5165 0.541626H28.1979C26.7826 0.541626 25.5086 1.39976 24.9514 2.72813L21.4318 11.1084H19.6205C10.4607 11.1084 3.00736 18.6961 2.95189 28.0426C1.46556 28.0815 0.267822 29.3222 0.267822 30.8499V31.9072C0.267822 33.4588 1.50282 34.7216 3.02209 34.7216H3.03162L7.66569 79.4702C7.71162 79.9095 8.07475 80.2442 8.50895 80.2442H40.1588C40.593 80.2442 40.9561 79.9095 41.002 79.4693L45.6361 34.7207H45.6456C47.1649 34.7207 48.3999 33.4579 48.3999 31.9064V30.849C48.3999 29.3222 47.2013 28.0806 45.715 28.0417ZM26.5105 3.41092C26.8 2.72016 27.463 2.27383 28.1988 2.27383H39.5148L39.5174 5.0156H30.2562C29.3636 5.0156 28.5524 5.55403 28.1892 6.3856L26.1257 11.1075H23.2778L26.5105 3.41092ZM19.6205 12.8406H21.9908H26.6752H29.0455C37.2684 12.8406 43.9652 19.6463 44.0241 28.0346H4.64189C4.70082 19.6463 11.3976 12.8406 19.6205 12.8406ZM39.3952 78.5111H9.27162L5.76249 44.6278C7.91356 43.3818 17.4998 38.4083 23.7337 44.7766C26.4351 47.5378 29.6435 48.4535 32.7124 48.4535C36.8646 48.4535 40.7567 46.7762 42.7908 45.7241L39.3952 78.5111ZM43.0066 43.643C41.0714 44.7863 31.2806 50.0396 24.9332 43.5518C18.3803 36.8568 8.85129 41.0128 5.57009 42.7663L4.73722 34.7207H43.9314L43.0066 43.643ZM46.7038 31.9064C46.7038 32.5032 46.2289 32.9877 45.6447 32.9877H44.8725H3.79429H3.02209C2.43795 32.9877 1.96302 32.5024 1.96302 31.9064V30.849C1.96302 30.2521 2.43795 29.7668 3.02209 29.7668H3.79429H44.8725H45.6447C46.2289 29.7668 46.7038 30.2521 46.7038 30.849V31.9064Z" fill="white"/>
<path d="M17.394 58.5625C15.3365 58.5625 13.6621 60.2734 13.6621 62.3758C13.6621 64.4782 15.3365 66.1892 17.394 66.1892C19.4523 66.1892 21.1267 64.4782 21.1267 62.3758C21.1267 60.2734 19.4523 58.5625 17.394 58.5625ZM17.394 64.4569C16.2716 64.4569 15.3582 63.5235 15.3582 62.3767C15.3582 61.2299 16.2716 60.2956 17.394 60.2956C18.5163 60.2956 19.4306 61.229 19.4306 62.3767C19.4306 63.5235 18.5172 64.4569 17.394 64.4569Z" fill="white"/>
<path d="M15.1606 48.1675C15.1606 46.0651 13.4862 44.3541 11.4288 44.3541C9.3713 44.3541 7.6969 46.0651 7.6969 48.1675C7.6969 50.2698 9.3713 51.9808 11.4288 51.9808C13.4862 51.9799 15.1606 50.2698 15.1606 48.1675ZM11.4288 50.2477C10.3064 50.2477 9.39297 49.3143 9.39297 48.1675C9.39297 47.0206 10.3064 46.0863 11.4288 46.0863C12.5511 46.0863 13.4646 47.0197 13.4646 48.1675C13.4646 49.3143 12.552 50.2477 11.4288 50.2477Z" fill="white"/>
<path d="M35.8436 50.2477C33.7861 50.2477 32.1117 51.9586 32.1117 54.061C32.1117 56.1634 33.7861 57.8743 35.8436 57.8743C37.901 57.8743 39.5754 56.1634 39.5754 54.061C39.5754 51.9577 37.901 50.2477 35.8436 50.2477ZM35.8436 56.1421C34.7212 56.1421 33.8078 55.2087 33.8078 54.061C33.8078 52.9142 34.7212 51.9799 35.8436 51.9799C36.9659 51.9799 37.8794 52.9133 37.8794 54.061C37.8794 55.2078 36.9659 56.1421 35.8436 56.1421Z" fill="white"/>
<path d="M27.3979 51.7248C27.3979 49.6224 25.7235 47.9115 23.6661 47.9115C21.6086 47.9115 19.9342 49.6224 19.9342 51.7248C19.9342 53.8272 21.6086 55.5381 23.6661 55.5381C25.7235 55.5373 27.3979 53.8272 27.3979 51.7248ZM23.6661 53.8051C22.5437 53.8051 21.6303 52.8717 21.6303 51.7248C21.6303 50.578 22.5437 49.6437 23.6661 49.6437C24.7884 49.6437 25.7019 50.5771 25.7019 51.7248C25.7019 52.8717 24.7884 53.8051 23.6661 53.8051Z" fill="white"/>
<path d="M33.2341 63.3907C33.2341 61.2883 31.5597 59.5774 29.5014 59.5774C27.4439 59.5774 25.7695 61.2883 25.7695 63.3907C25.7695 65.4931 27.4439 67.204 29.5014 67.204C31.5597 67.204 33.2341 65.494 33.2341 63.3907ZM29.5014 65.4718C28.3791 65.4718 27.4656 64.5384 27.4656 63.3907C27.4656 62.243 28.3791 61.3096 29.5014 61.3096C30.6237 61.3096 31.5381 62.243 31.5381 63.3907C31.5381 64.5384 30.6246 65.4718 29.5014 65.4718Z" fill="white"/>
<path d="M33.5799 68.759C31.5224 68.759 29.848 70.47 29.848 72.5724C29.848 74.6747 31.5224 76.3857 33.5799 76.3857C35.6374 76.3857 37.3118 74.6747 37.3118 72.5724C37.3118 70.47 35.6374 68.759 33.5799 68.759ZM33.5799 74.6535C32.4576 74.6535 31.5441 73.7201 31.5441 72.5724C31.5441 71.4255 32.4576 70.4912 33.5799 70.4912C34.7022 70.4912 35.6157 71.4246 35.6157 72.5724C35.6157 73.7192 34.7031 74.6535 33.5799 74.6535Z" fill="white"/>
<path d="M16.2431 68.759C14.1848 68.759 12.5104 70.47 12.5104 72.5724C12.5104 74.6747 14.1848 76.3857 16.2431 76.3857C18.3006 76.3857 19.975 74.6747 19.975 72.5724C19.975 70.47 18.3006 68.759 16.2431 68.759ZM16.2431 74.6535C15.1208 74.6535 14.2064 73.7201 14.2064 72.5724C14.2064 71.4255 15.1208 70.4912 16.2431 70.4912C17.3654 70.4912 18.2789 71.4246 18.2789 72.5724C18.2798 73.7192 17.3663 74.6535 16.2431 74.6535Z" fill="white"/>
</svg>
