<svg width="98" height="98" viewBox="0 0 98 98" fill="none" xmlns="http://www.w3.org/2000/svg">
<g clip-path="url(#clip0_255_84)">
<path d="M82.9329 46.5614C84.3936 55.7125 64.2515 56.8751 64.2515 56.8751L38.106 58.9106C38.106 58.9106 22.4193 60.9889 16.1181 55.9689C12.9117 53.414 14.384 49.5609 16.6056 46.3946C18.7218 43.3779 21.5655 40.9312 24.8555 39.2377L25.2351 39.0443C28.2209 49.7743 35.1201 48.4054 35.1201 48.4054C31.1243 44.4925 29.4922 36.8545 29.4922 36.8545C29.4922 36.8545 34.1319 32.956 39.959 32.5612C42.2976 43.4498 50.3573 45.2433 50.3573 45.2433C46.6008 41.1024 45.4333 33.3805 45.4333 33.3805L45.4438 33.3519C45.646 33.4297 45.8487 33.5125 46.0544 33.6027C46.0544 33.6027 51.4719 29.9092 57.126 32.53C59.3862 45.2072 67.0215 45.718 67.0215 45.718C63.2651 41.577 62.399 34.5792 62.399 34.5792L62.2746 33.7102C64.9389 33.7113 68.6903 34.0956 70.47 36.031C70.4626 36.0341 81.4721 37.4104 82.9329 46.5614Z" fill="#F2F2F2"/>
<path d="M29.4898 36.8571C29.4898 36.8571 31.1219 44.4951 35.1177 48.408C35.1177 48.408 28.2185 49.7769 25.2327 39.0469L29.4898 36.8571ZM45.4305 33.3781L45.441 33.3495C43.5687 32.6332 41.7093 32.4385 39.9586 32.5561C42.2971 43.4447 50.3568 45.2382 50.3568 45.2382C46.5981 41.1 45.4305 33.3781 45.4305 33.3781ZM62.3916 34.5822L62.2672 33.7132C60.5529 33.7118 59.2864 33.8653 59.2864 33.8653C58.5672 33.3022 57.8399 32.8635 57.1158 32.5307C59.376 45.2079 67.0114 45.7187 67.0114 45.7187C63.2627 41.5797 62.3916 34.5822 62.3916 34.5822Z" fill="#F2F2F2"/>
<path d="M29.4899 36.8571C29.4899 36.8571 34.1296 32.9587 39.9567 32.5639C41.7075 32.4463 43.5668 32.641 45.4392 33.3573C45.6414 33.4351 45.844 33.5179 46.0498 33.608C46.0498 33.608 51.4672 29.9146 57.1214 32.5353C57.8431 32.8709 58.5704 33.3096 59.2919 33.8699C59.2919 33.8699 60.5558 33.7142 62.2727 33.7179C64.937 33.719 68.6884 34.1033 70.4681 36.0387C70.4681 36.0387 81.4749 37.4127 82.936 46.5687C84.3972 55.7248 64.2547 56.8824 64.2547 56.8824L38.1092 58.9179C38.1092 58.9179 22.4225 60.9962 16.1212 55.9762C12.9149 53.4213 14.3871 49.5682 16.6088 46.4019C18.725 43.3852 21.5687 40.9385 24.8587 39.2451L25.2383 39.0516L29.4899 36.8571Z" stroke="#A38C6D" stroke-width="2" stroke-miterlimit="10" stroke-linecap="round" stroke-linejoin="round"/>
<path d="M29.4899 36.8572C29.4899 36.8572 31.122 44.4952 35.1178 48.4081C35.1178 48.4081 28.2186 49.777 25.2328 39.047" stroke="#A38C6D" stroke-width="2" stroke-miterlimit="10" stroke-linecap="round" stroke-linejoin="round"/>
<path d="M45.4306 33.3782C45.4306 33.3782 46.6009 41.1024 50.3546 45.2411C50.3546 45.2411 42.2972 43.4448 39.9563 32.559" stroke="#A38C6D" stroke-width="2" stroke-miterlimit="10" stroke-linecap="round" stroke-linejoin="round"/>
<path d="M57.1209 32.5303C59.3811 45.2075 67.0165 45.7183 67.0165 45.7183C63.26 41.5774 62.3939 34.5796 62.3939 34.5796L62.2696 33.7105" stroke="#A38C6D" stroke-width="2" stroke-miterlimit="10" stroke-linecap="round" stroke-linejoin="round"/>
</g>
<defs>
<clipPath id="clip0_255_84">
<rect width="68.6977" height="68.605" fill="white" transform="matrix(0.762709 0.646741 -0.653282 0.757115 45.1516 0.807983)"/>
</clipPath>
</defs>
</svg>
