<svg width="9" height="12" viewBox="0 0 9 12" fill="#695757" xmlns="http://www.w3.org/2000/svg">
<path d="M8.16284 3.90919C8.16284 1.53469 6.74035 0 4.53693 0C2.3335 0 0.911011 1.53469 0.911011 3.90919C0.911011 5.88844 3.76702 9.86175 4.0934 10.3063L4.49228 10.8553C2.8215 10.86 1.47412 11.1141 1.47412 11.4274C1.47412 11.7435 2.84619 11.9998 4.53868 11.9998C6.23117 11.9998 7.60323 11.7435 7.60323 11.4274C7.60323 11.1139 6.25428 10.8596 4.58193 10.8553L4.98325 10.3063C5.30665 9.85894 8.16284 5.88562 8.16284 3.90919ZM3.36272 3.90656C3.36272 3.23081 3.88837 2.68294 4.53693 2.68294C5.18549 2.68294 5.71113 3.23081 5.71113 3.90656C5.71113 4.58231 5.18549 5.13019 4.53693 5.13019C3.88837 5.13019 3.36272 4.58231 3.36272 3.90656Z" fill="#695757"/>
</svg>
