<svg width="24" height="24" viewBox="0 0 24 24" fill="none" xmlns="http://www.w3.org/2000/svg">
<path fill-rule="evenodd" clip-rule="evenodd" d="M23.25 12C23.25 18.2132 18.2132 23.25 12 23.25C5.7868 23.25 0.75 18.2132 0.75 12C0.75 5.7868 5.7868 0.75 12 0.75C18.2132 0.75 23.25 5.7868 23.25 12ZM12.9375 5.63083C12.9375 5.11306 12.5177 4.69333 12 4.69333C11.4823 4.69333 11.0625 5.11306 11.0625 5.63083V12.4105V12.9024L11.4671 13.1819L16.0487 16.3466C16.4748 16.6409 17.0586 16.534 17.353 16.108C17.6472 15.682 17.5404 15.0981 17.1144 14.8039L12.9375 11.9186V5.63083Z" fill="#695757"/>
</svg>
