<svg width="22" height="22" viewBox="0 0 22 22" fill="none" xmlns="http://www.w3.org/2000/svg">
<path fill-rule="evenodd" clip-rule="evenodd" d="M21.5 11C21.5 16.799 16.799 21.5 11 21.5C5.20101 21.5 0.5 16.799 0.5 11C0.5 5.20101 5.20101 0.5 11 0.5C16.799 0.5 21.5 5.20101 21.5 11ZM11 20C15.9706 20 20 15.9706 20 11C20 6.02944 15.9706 2 11 2C6.02944 2 2 6.02944 2 11C2 15.9706 6.02944 20 11 20Z" fill="white"/>
<path d="M14.513 8.05854C14.0435 8.05854 13.5932 7.87637 13.2612 7.55202C12.9291 7.22767 12.7425 6.78769 12.7425 6.32888C12.7425 6.29721 12.7446 6.26127 12.7471 6.21907C12.7474 6.21246 12.7478 6.20567 12.7482 6.19872C12.751 6.14959 12.7538 6.09415 12.7525 6.03923C12.75 5.93689 12.7335 5.80034 12.6381 5.70716C12.5457 5.61696 12.4042 5.59134 12.2943 5.58176C12.2059 5.57405 12.1115 5.57536 12.0381 5.57638C12.016 5.57669 11.9958 5.57695 11.9783 5.57695C11.9608 5.57695 11.9408 5.57669 11.9191 5.57638C11.8475 5.57536 11.7572 5.57408 11.6732 5.5818C11.5666 5.59162 11.4327 5.61803 11.3414 5.70716C11.246 5.80034 11.2296 5.93689 11.2271 6.03923C11.2257 6.09415 11.2285 6.14959 11.2313 6.19872C11.2317 6.20567 11.2321 6.21244 11.2325 6.21907C11.2349 6.26127 11.237 6.29721 11.237 6.32888V12.4906C11.237 12.8328 11.1331 13.1672 10.9386 13.4517C10.744 13.7361 10.4674 13.9578 10.144 14.0887C9.82049 14.2195 9.46457 14.2538 9.1212 14.1871C8.77781 14.1203 8.46234 13.9557 8.21474 13.7138C7.96711 13.4719 7.79844 13.1637 7.73012 12.8281C7.66177 12.4925 7.69685 12.1447 7.83088 11.8286C7.96492 11.5125 8.19188 11.2424 8.48303 11.0524C8.77417 10.8624 9.11644 10.7609 9.46654 10.7609C9.49493 10.7609 9.52623 10.7621 9.56211 10.7634C9.57562 10.7639 9.58979 10.7644 9.6047 10.7649C9.65702 10.7667 9.71549 10.7679 9.77357 10.7651C9.88123 10.7599 10.0237 10.7401 10.1181 10.6479C10.2125 10.5557 10.2319 10.4194 10.2365 10.3159C10.239 10.2603 10.2373 10.2044 10.2353 10.1544C10.2348 10.1423 10.2343 10.1307 10.2338 10.1195C10.2322 10.0827 10.2308 10.0506 10.2308 10.0217C10.2308 10.0136 10.2308 10.0051 10.2308 9.99633C10.231 9.92057 10.2313 9.82203 10.2183 9.72811C10.2043 9.62593 10.1719 9.50419 10.0837 9.41804C9.99304 9.32949 9.86521 9.30339 9.76142 9.29416C9.68392 9.28729 9.59936 9.28881 9.53086 9.29005C9.50718 9.29048 9.48542 9.29088 9.46654 9.29088C8.81854 9.29088 8.18513 9.47859 7.64638 9.83021C7.10766 10.1818 6.6878 10.6816 6.43988 11.2662C6.19196 11.8509 6.1271 12.4942 6.25347 13.1148C6.37987 13.7355 6.69182 14.3056 7.14995 14.7531C7.60811 15.2006 8.19184 15.5054 8.82737 15.6289C9.46291 15.7524 10.1217 15.689 10.7203 15.4468C11.3189 15.2045 11.8306 14.7944 12.1905 14.2682C12.5504 13.742 12.7425 13.1234 12.7425 12.4906V9.02237C13.2683 9.355 13.8835 9.53189 14.5133 9.52861C14.5466 9.52863 14.5845 9.53094 14.6292 9.53365C14.6341 9.53396 14.6391 9.53427 14.6441 9.53457C14.6935 9.53755 14.7493 9.54064 14.8046 9.53971C14.9082 9.538 15.0461 9.52264 15.1416 9.42929C15.2316 9.3414 15.2629 9.20882 15.2764 9.10199C15.2892 9.0014 15.2889 8.89626 15.2888 8.8189C15.2887 8.81008 15.2887 8.80162 15.2887 8.79359C15.2887 8.78548 15.2887 8.77702 15.2888 8.76824C15.2889 8.69239 15.2892 8.59356 15.2763 8.49933C15.2622 8.39694 15.2299 8.2747 15.1416 8.18848C15.0508 8.09974 14.9197 8.07309 14.8141 8.06327C14.7319 8.05559 14.6432 8.05688 14.5725 8.05792C14.5508 8.05823 14.5307 8.05854 14.513 8.05854Z" fill="white"/>
</svg>
