<svg width="22" height="22" viewBox="0 0 22 22" fill="none" xmlns="http://www.w3.org/2000/svg">
<path d="M10.7201 21.8837C4.76088 21.909 -0.139076 17.058 0.00301442 11.1332C0.136493 5.49057 4.91589 0.829072 10.8578 0.892236C16.7438 0.9554 21.6136 5.74744 21.4543 11.6806C21.3036 17.298 16.563 21.9132 10.7201 21.8837ZM1.30766 11.4027C1.35502 16.679 5.72968 20.7425 10.8966 20.6541C15.8999 20.5657 20.1411 16.5779 20.1411 11.3901C20.1411 6.11379 15.732 2.0334 10.5478 2.13025C5.54453 2.21868 1.34211 6.21906 1.30766 11.4027Z" fill="white"/>
<path d="M8.39496 18.8172C8.39496 16.337 8.39496 13.8778 8.39496 11.3934C7.83522 11.3934 7.29269 11.3934 6.73725 11.3934C6.73725 10.5512 6.73725 9.73427 6.73725 8.89209C6.81044 8.88788 6.88364 8.87945 6.96114 8.87945C7.36158 8.87945 7.76632 8.87103 8.16676 8.88367C8.34329 8.88788 8.40358 8.84156 8.39927 8.6647C8.39066 8.02464 8.39066 7.38879 8.39496 6.74872C8.39927 6.02866 8.60595 5.37596 9.13125 4.85381C9.63933 4.3485 10.2895 4.07479 10.9956 4.03268C12.1324 3.96951 13.2734 3.97793 14.4144 3.95688C14.4273 3.95688 14.4403 3.96951 14.4661 3.98214C14.4661 4.82854 14.4661 5.67915 14.4661 6.55081C14.3843 6.55502 14.3068 6.55923 14.2336 6.55923C13.7169 6.55923 13.2002 6.55923 12.6835 6.55923C12.1625 6.56344 11.8568 6.86663 11.8568 7.36773C11.8568 7.84357 11.8568 8.32361 11.8611 8.79945C11.8611 8.81208 11.8697 8.82471 11.8826 8.87103C12.7352 8.87103 13.5963 8.87103 14.5005 8.87103C14.3886 9.72585 14.2852 10.5428 14.1733 11.3892C13.394 11.3892 12.6318 11.3892 11.8482 11.3892C11.8482 13.882 11.8482 18.8257 11.8482 18.8257C11.8482 18.8257 9.56183 18.8172 8.39496 18.8172Z" fill="white"/>
</svg>
