<svg width="21" height="21" viewBox="0 0 21 21" fill="none" xmlns="http://www.w3.org/2000/svg">
<path d="M20.5553 10.8637C20.5553 12.2692 20.5264 13.6787 20.5635 15.0842C20.6255 17.5721 19.0273 19.4946 16.9913 20.3508C16.1736 20.6941 15.3146 20.8758 14.4267 20.8758C11.6474 20.8799 8.864 20.9162 6.08469 20.8637C3.99091 20.8233 2.26881 19.9671 1.03403 18.2789C0.385657 17.3904 0.0759277 16.3807 0.0759277 15.2862C0.0759277 12.3904 0.0759277 9.49861 0.0759277 6.60281C0.0759277 4.24013 1.2529 2.58827 3.34254 1.51396C4.25109 1.0495 5.23809 0.851599 6.26639 0.84756C8.96311 0.84756 11.664 0.831405 14.3607 0.855638C16.4544 0.871793 18.2013 1.65532 19.4898 3.30313C20.2084 4.22397 20.5553 5.28213 20.5553 6.4453C20.5553 7.91541 20.5553 9.38957 20.5553 10.8637ZM1.5998 10.8637C1.5998 12.3459 1.5998 13.8241 1.5998 15.3064C1.5998 15.9687 1.75673 16.5907 2.10776 17.1521C3.02869 18.6262 4.4204 19.3451 6.14663 19.3734C8.91768 19.4138 11.6929 19.3896 14.468 19.3815C15.1494 19.3815 15.8102 19.2442 16.4255 18.9574C18.1022 18.1739 19.0397 16.9259 19.0314 15.0519C19.0149 12.1844 19.0273 9.31687 19.0273 6.44934C19.0273 5.63755 18.7919 4.89441 18.3004 4.24013C17.3506 2.98407 16.0373 2.36614 14.468 2.34998C11.7011 2.31767 8.9342 2.33787 6.16728 2.34191C5.57673 2.34191 5.00683 2.45903 4.45344 2.66097C2.9337 3.21428 1.52133 4.61574 1.58741 6.67955C1.63697 8.07696 1.5998 9.47034 1.5998 10.8637Z" fill="white"/>
<path d="M9.88797 15.5123C7.22429 15.5123 5.07683 13.4364 5.0727 10.8516C5.06857 8.30718 7.23255 6.22317 9.87971 6.22317C12.5351 6.21913 14.6908 8.2991 14.695 10.8637C14.695 13.4243 12.5434 15.5083 9.88797 15.5123ZM9.88797 14.018C11.7009 14.018 13.1711 12.6004 13.167 10.8556C13.1628 9.12705 11.6927 7.71348 9.88797 7.71348C8.07502 7.71348 6.59657 9.12301 6.59657 10.8637C6.6007 12.6085 8.07502 14.022 9.88797 14.018Z" fill="white"/>
<path d="M15.4964 5.18967C16.0539 5.18967 16.5082 5.65394 16.5082 6.22317C16.504 6.7924 16.0456 7.25263 15.4881 7.2486C14.9389 7.24456 14.4887 6.78433 14.4887 6.22721C14.4846 5.65797 14.9389 5.18967 15.4964 5.18967Z" fill="white"/>
</svg>
