<svg width="21" height="21" viewBox="0 0 21 21" fill="none" xmlns="http://www.w3.org/2000/svg">
<path d="M20.6655 10.5696C20.6655 15.9419 16.1626 20.2969 10.607 20.2969C8.84337 20.2969 7.18646 19.8575 5.74492 19.0865L0.176147 20.8112L1.99173 15.5922C1.07586 14.1265 0.54837 12.4074 0.54837 10.5696C0.54837 5.19728 5.0517 0.842285 10.607 0.842285C16.1631 0.842285 20.6655 5.19728 20.6655 10.5696ZM10.607 2.39143C5.94367 2.39143 2.15041 6.06016 2.15041 10.5696C2.15041 12.359 2.74893 14.0162 3.76133 15.3643L2.70476 18.4016L5.9546 17.3949C7.28982 18.2494 8.88935 18.7477 10.6073 18.7477C15.27 18.7477 19.0639 15.0794 19.0639 10.57C19.0639 6.0606 15.2702 2.39143 10.607 2.39143ZM15.6863 12.8099C15.6242 12.7107 15.4601 12.6508 15.2137 12.5316C14.9669 12.4125 13.7544 11.8354 13.529 11.7562C13.303 11.6767 13.1382 11.6368 12.974 11.8753C12.8099 12.1141 12.3373 12.6508 12.1931 12.8099C12.0493 12.9694 11.9056 12.9894 11.6588 12.87C11.4125 12.7508 10.6182 12.4988 9.67637 11.6867C8.94353 11.0548 8.4486 10.2747 8.30472 10.0357C8.16107 9.79722 8.2897 9.66831 8.41286 9.54961C8.52396 9.44266 8.65964 9.27115 8.78281 9.13204C8.90643 8.9927 8.94741 8.89352 9.02914 8.73421C9.11178 8.57513 9.07057 8.43601 9.00865 8.31642C8.94718 8.19727 8.45361 7.02399 8.24826 6.54651C8.04292 6.06947 7.83779 6.14891 7.69369 6.14891C7.55003 6.14891 7.38544 6.12894 7.22107 6.12894C7.05669 6.12894 6.78942 6.18862 6.56336 6.42714C6.33752 6.66588 5.70076 7.24276 5.70076 8.41582C5.70076 9.5891 6.58385 10.7227 6.70747 10.8815C6.83063 11.0404 8.41263 13.5263 10.9192 14.481C13.4259 15.4353 13.4259 15.1169 13.8781 15.077C14.3297 15.0373 15.3364 14.5003 15.5427 13.9439C15.7476 13.3865 15.7476 12.9093 15.6863 12.8099Z" fill="white"/>
</svg>
