<svg width="20" height="20" viewBox="0 0 20 20" fill="none" xmlns="http://www.w3.org/2000/svg">
<mask id="path-1-inside-1_306_187" fill="white">
<path d="M3.38645 0.641113C1.65657 0.641113 0.244751 2.01707 0.244751 3.70301V15.9506C0.244751 17.6365 1.65657 19.0125 3.38645 19.0125H15.9532C17.6831 19.0125 19.0949 17.6365 19.0949 15.9506V3.70301C19.0949 2.01707 17.6831 0.641113 15.9532 0.641113H3.38645ZM3.38645 1.51594H15.9532C17.1981 1.51594 18.1973 2.48977 18.1973 3.70301V15.9506C18.1973 17.1638 17.1981 18.1377 15.9532 18.1377H3.38645C2.14159 18.1377 1.14238 17.1638 1.14238 15.9506V3.70301C1.14238 2.48977 2.14159 1.51594 3.38645 1.51594ZM4.32265 4.57784L8.4619 10.3095L4.28408 15.0758H5.40611L8.96857 11.0109L11.9034 15.0758H15.4659L10.9216 8.78282L14.6068 4.57784H13.4848L10.4149 8.08142L7.88511 4.57784H4.32265ZM6.04076 5.45266H7.41613L13.7477 14.2009H12.3724L6.04076 5.45266Z"/>
</mask>
<path d="M3.38645 0.641113C1.65657 0.641113 0.244751 2.01707 0.244751 3.70301V15.9506C0.244751 17.6365 1.65657 19.0125 3.38645 19.0125H15.9532C17.6831 19.0125 19.0949 17.6365 19.0949 15.9506V3.70301C19.0949 2.01707 17.6831 0.641113 15.9532 0.641113H3.38645ZM3.38645 1.51594H15.9532C17.1981 1.51594 18.1973 2.48977 18.1973 3.70301V15.9506C18.1973 17.1638 17.1981 18.1377 15.9532 18.1377H3.38645C2.14159 18.1377 1.14238 17.1638 1.14238 15.9506V3.70301C1.14238 2.48977 2.14159 1.51594 3.38645 1.51594ZM4.32265 4.57784L8.4619 10.3095L4.28408 15.0758H5.40611L8.96857 11.0109L11.9034 15.0758H15.4659L10.9216 8.78282L14.6068 4.57784H13.4848L10.4149 8.08142L7.88511 4.57784H4.32265ZM6.04076 5.45266H7.41613L13.7477 14.2009H12.3724L6.04076 5.45266Z" fill="white"/>
<path d="M4.32265 4.57784V3.07784H1.38913L3.1066 5.45603L4.32265 4.57784ZM8.4619 10.3095L9.58991 11.2982L10.3774 10.3998L9.67795 9.4313L8.4619 10.3095ZM4.28408 15.0758L3.15607 14.087L0.974593 16.5758H4.28408V15.0758ZM5.40611 15.0758V16.5758H6.08605L6.53419 16.0644L5.40611 15.0758ZM8.96857 11.0109L10.1847 10.1328L9.08205 8.60559L7.84049 10.0222L8.96857 11.0109ZM11.9034 15.0758L10.6872 15.9538L11.1363 16.5758H11.9034V15.0758ZM15.4659 15.0758V16.5758H18.3992L16.6819 14.1976L15.4659 15.0758ZM10.9216 8.78282L9.79353 7.79418L9.00622 8.69254L9.70554 9.66097L10.9216 8.78282ZM14.6068 4.57784L15.7349 5.56648L17.9159 3.07784H14.6068V4.57784ZM13.4848 4.57784V3.07784H12.8047L12.3566 3.58932L13.4848 4.57784ZM10.4149 8.08142L9.19884 8.95953L10.3017 10.4868L11.5431 9.06994L10.4149 8.08142ZM7.88511 4.57784L9.10121 3.69972L8.65217 3.07784H7.88511V4.57784ZM6.04076 5.45266V3.95266H3.10348L4.82563 6.33212L6.04076 5.45266ZM7.41613 5.45266L8.63127 4.5732L8.18215 3.95266H7.41613V5.45266ZM13.7477 14.2009V15.7009H16.685L14.9629 13.3215L13.7477 14.2009ZM12.3724 14.2009L11.1572 15.0804L11.6064 15.7009H12.3724V14.2009ZM3.38645 -0.858887C0.864758 -0.858887 -1.25525 1.1525 -1.25525 3.70301H1.74475C1.74475 2.88165 2.44838 2.14111 3.38645 2.14111V-0.858887ZM-1.25525 3.70301V15.9506H1.74475V3.70301H-1.25525ZM-1.25525 15.9506C-1.25525 18.5011 0.864757 20.5125 3.38645 20.5125V17.5125C2.44838 17.5125 1.74475 16.772 1.74475 15.9506H-1.25525ZM3.38645 20.5125H15.9532V17.5125H3.38645V20.5125ZM15.9532 20.5125C18.4749 20.5125 20.5949 18.5011 20.5949 15.9506H17.5949C17.5949 16.772 16.8913 17.5125 15.9532 17.5125V20.5125ZM20.5949 15.9506V3.70301H17.5949V15.9506H20.5949ZM20.5949 3.70301C20.5949 1.1525 18.4749 -0.858887 15.9532 -0.858887V2.14111C16.8913 2.14111 17.5949 2.88165 17.5949 3.70301H20.5949ZM15.9532 -0.858887H3.38645V2.14111H15.9532V-0.858887ZM3.38645 3.01594H15.9532V0.0159407H3.38645V3.01594ZM15.9532 3.01594C16.4063 3.01594 16.6973 3.35435 16.6973 3.70301H19.6973C19.6973 1.62519 17.9899 0.0159407 15.9532 0.0159407V3.01594ZM16.6973 3.70301V15.9506H19.6973V3.70301H16.6973ZM16.6973 15.9506C16.6973 16.2993 16.4063 16.6377 15.9532 16.6377V19.6377C17.9899 19.6377 19.6973 18.0284 19.6973 15.9506H16.6973ZM15.9532 16.6377H3.38645V19.6377H15.9532V16.6377ZM3.38645 16.6377C2.9334 16.6377 2.64238 16.2993 2.64238 15.9506H-0.357621C-0.357621 18.0284 1.34978 19.6377 3.38645 19.6377V16.6377ZM2.64238 15.9506V3.70301H-0.357621V15.9506H2.64238ZM2.64238 3.70301C2.64238 3.35434 2.9334 3.01594 3.38645 3.01594V0.0159407C1.34978 0.0159407 -0.357621 1.62519 -0.357621 3.70301H2.64238ZM3.1066 5.45603L7.24586 11.1877L9.67795 9.4313L5.53869 3.69964L3.1066 5.45603ZM7.3339 9.32075L3.15607 14.087L5.41208 16.0645L9.58991 11.2982L7.3339 9.32075ZM4.28408 16.5758H5.40611V13.5758H4.28408V16.5758ZM6.53419 16.0644L10.0967 11.9995L7.84049 10.0222L4.27803 14.0871L6.53419 16.0644ZM7.75242 11.8889L10.6872 15.9538L13.1195 14.1977L10.1847 10.1328L7.75242 11.8889ZM11.9034 16.5758H15.4659V13.5758H11.9034V16.5758ZM16.6819 14.1976L12.1377 7.90467L9.70554 9.66097L14.2498 15.9539L16.6819 14.1976ZM12.0497 9.77146L15.7349 5.56648L13.4787 3.5892L9.79353 7.79418L12.0497 9.77146ZM14.6068 3.07784H13.4848V6.07784H14.6068V3.07784ZM12.3566 3.58932L9.28675 7.0929L11.5431 9.06994L14.613 5.56636L12.3566 3.58932ZM11.6311 7.2033L9.10121 3.69972L6.669 5.45595L9.19884 8.95953L11.6311 7.2033ZM7.88511 3.07784H4.32265V6.07784H7.88511V3.07784ZM6.04076 6.95266H7.41613V3.95266H6.04076V6.95266ZM6.201 6.33212L12.5326 15.0804L14.9629 13.3215L8.63127 4.5732L6.201 6.33212ZM13.7477 12.7009H12.3724V15.7009H13.7477V12.7009ZM13.5875 13.3215L7.2559 4.5732L4.82563 6.33212L11.1572 15.0804L13.5875 13.3215Z" fill="white" mask="url(#path-1-inside-1_306_187)"/>
</svg>
