<svg width="10" height="10" viewBox="0 0 10 10" fill="none" xmlns="http://www.w3.org/2000/svg">
<path d="M9.95501 7.97104L9.90524 7.82104C9.78735 7.47059 9.40096 7.10508 9.04598 7.00879L7.7322 6.64983C7.37592 6.55288 6.8677 6.68324 6.60703 6.94393L6.13155 7.4195C4.40354 6.95249 3.04851 5.59717 2.5822 3.86917L3.05771 3.39358C3.31838 3.13287 3.44869 2.62522 3.35176 2.26888L2.99352 0.954205C2.89659 0.598511 2.53048 0.212047 2.18076 0.0954388L2.03079 0.0450058C1.6804 -0.0716023 1.18069 0.0463263 0.920042 0.307023L0.208786 1.01906C0.0817207 1.14548 0.000510357 1.50706 0.000510357 1.50838C-0.0243662 3.76697 0.861088 5.94301 2.45843 7.54066C4.05185 9.13437 6.21934 10.0187 8.47095 9.9997C8.48273 9.9997 8.85472 9.91978 8.98179 9.79334L9.69304 9.08195C9.95369 8.82127 10.0716 8.32149 9.95501 7.97104Z" fill="white"/>
</svg>
