<svg width="16" height="15" viewBox="0 0 16 15" fill="none" xmlns="http://www.w3.org/2000/svg">
<path d="M8.19875 0C7.40538 0 6.62983 0.230249 5.97017 0.661631C5.3105 1.09301 4.79636 1.70615 4.49275 2.42351C4.18914 3.14088 4.1097 3.93024 4.26448 4.69179C4.41926 5.45334 4.8013 6.15286 5.3623 6.70191C5.9233 7.25095 6.63805 7.62486 7.41617 7.77634C8.1943 7.92782 9.00084 7.85007 9.73382 7.55293C10.4668 7.25579 11.0933 6.7526 11.5341 6.10699C11.9748 5.46138 12.2101 4.70235 12.2101 3.92589C12.2101 2.88468 11.7875 1.88611 11.0352 1.14987C10.2829 0.413619 9.26262 0 8.19875 0ZM8.19875 6.28142C7.72273 6.28142 7.2574 6.14327 6.8616 5.88444C6.4658 5.62561 6.15731 5.25773 5.97515 4.82731C5.79298 4.39689 5.74532 3.92327 5.83819 3.46634C5.93106 3.00942 6.16028 2.5897 6.49688 2.26027C6.83348 1.93085 7.26233 1.7065 7.7292 1.61562C8.19608 1.52473 8.68001 1.57137 9.11979 1.74966C9.55958 1.92794 9.93547 2.22986 10.1999 2.61722C10.4644 3.00459 10.6056 3.46001 10.6056 3.92589C10.6056 4.55061 10.352 5.14975 9.90062 5.5915C9.44925 6.03325 8.83707 6.28142 8.19875 6.28142ZM15.4192 14.9184V14.1332C15.4192 12.6755 14.8275 11.2775 13.7743 10.2468C12.7211 9.21602 11.2927 8.63695 9.80328 8.63695H6.59421C5.10479 8.63695 3.67637 9.21602 2.62319 10.2468C1.57 11.2775 0.978333 12.6755 0.978333 14.1332V14.9184H2.58287V14.1332C2.58287 13.092 3.00549 12.0934 3.75776 11.3572C4.51004 10.6209 5.53034 10.2073 6.59421 10.2073H9.80328C10.8672 10.2073 11.8875 10.6209 12.6397 11.3572C13.392 12.0934 13.8146 13.092 13.8146 14.1332V14.9184H15.4192Z" fill="#4F4F4F"/>
</svg>
